<svg version="1.1" viewBox="0 0 659.61 95.341" xmlns="http://www.w3.org/2000/svg">
  <defs>
    <clipPath id="a">
      <path d="M 0,102.234 H 522.85 V 0 H 0 Z"/>
    </clipPath>
  </defs>
  <g transform="matrix(1.3333 0 0 -1.3333 -18.02 115.83)">
    <path d="m359.98 85.808h-61.044v-3.21h61.044z" fill="#231f20"/>
    <g clip-path="url(#a)">
      <g transform="translate(294.75 35.838)">
        <path d="m0 0c0 9.179-6.069 14.802-19.682 18.235l-8.566 2.213c-8.023 2.007-15.219 4.541-15.219 13.403 0 8.217 7.08 13.956 17.224 13.956 9.957 0 18.082-4.527 21.734-12.116l0.46-0.952 2.25 1.75-0.307 0.626c-4.131 8.366-13.156 13.362-24.137 13.362-12.987 0-22.781-7.891-22.781-18.355 0-10.917 7.642-15.034 19.119-17.853l9.139-2.214c7.081-1.69 15.21-4.87 15.21-14.555 0-7.616-5.771-15.302-18.668-15.302-11.863 0-21.741 5.898-25.166 15.027l-0.348 0.924-2.367-1.314 0.247-0.684c3.601-9.943 14.706-16.625 27.634-16.625 6.342 0 12.249 1.816 16.633 5.113 4.966 3.736 7.591 9.047 7.591 15.361" fill="#231f20"/>
      </g>
      <path d="m143.47 82.598h22.016v3.319h-22.016z" fill="#231f20"/>
      <g transform="translate(204.51 82.598)">
        <path d="m0 0v3.319h-33.829v-69.589h6.518v66.27z" fill="#231f20"/>
      </g>
      <g transform="translate(42.359 77.216)">
        <path d="m0 0 14.849-33.142h-24.7l-1.149-2.765h27.092l10.866-24.429h6.775l-31.052 69.99h-1.505l-30.02-69.99h3.015z" fill="#231f20"/>
      </g>
      <path d="m219.82 16.328h5.992v69.025h-5.992z" fill="#231f20"/>
      <g transform="translate(371.45 85.354)">
        <path d="m0 0v-69.025h6.615v30.869h12.777l22.552-30.524 0.256-0.345h7.773l-23.121 31.289c5.541 1.011 16.248 4.785 16.248 18.803 0 13.271-6.419 18.933-21.462 18.933h-9.812v-2.767h10.486c10.565 0 13.786-3.778 13.786-16.166 0-11.073-3.851-16.456-11.776-16.456h-17.707v35.389z" fill="#231f20"/>
      </g>
      <g transform="translate(457.95 16.328)">
        <path d="m0 0v28.401l25.403 40.624h-3.072l-23.57-37.427-23.222 37.029-0.253 0.398h-7.503l25.602-40.627v-28.398z" fill="#231f20"/>
      </g>
      <g transform="translate(134.28 66.421)">
        <path d="m0 0c0 13.271-6.417 18.933-21.46 18.933h-21.637v-69.026h6.613v66.259h15.698c10.565 0 13.786-3.778 13.786-16.166 0-11.075-3.852-16.457-11.776-16.457h-13.11v-2.766h7.269l23.731-30.87h7.802l-23.952 31.156c2.514 0.384 6.431 1.343 9.826 3.735 4.785 3.372 7.21 8.485 7.21 15.202" fill="#231f20"/>
      </g>
      <path d="m332.67 77.775h-6.518v-61.447h6.518z" fill="#231f20"/>
      <g transform="translate(494.13 74.919)">
        <path d="m0 0v8.208h2.955v1.625h-7.732v-1.625h2.956v-8.208z" fill="#231f20"/>
      </g>
      <g transform="translate(503.32 78.618)">
        <path d="m0 0-3.138 6.135h-1.765v-9.833h1.821v5.785l2.325-4.496h1.499l2.325 4.496v-5.785h1.835v9.833h-1.764z" fill="#231f20"/>
      </g>
    </g>
  </g>
</svg>
