<svg
        viewBox="0 0 68.332 9.961"
        xmlns="http://www.w3.org/2000/svg"
>
    <defs>
        <clipPath id="a">
            <path transform="matrix(1 0 0 -1 0 408.189)" d="M0 0h595.276v408.189H0z"/>
        </clipPath>
        <clipPath id="b">
            <path transform="matrix(1 0 0 -1 0 408.189)" d="M0 0h595.276v408.189H0z"/>
        </clipPath>
    </defs>
    <path d="M90.82 143.52h-2.528v.766h2.528zM97.019 143.52h-4.972v9.96h1.205v-9.194h3.767zM79.386 153.48l-4.419-9.96h-.407l-4.273 9.96h.749l3.465-8.095 1.81 4.039h-2.46l-.285.687h3.052l1.5 3.37z" fill="#1c424d" style="stroke-width:.352778" transform="translate(-70.287 -143.52)"/>
    <g clip-path="url(#a)" transform="matrix(.35278 0 0 .35278 -114.25 -33)">
        <path d="M365.846 109.288c.998-.22 2.226-.639 3.325-1.424 1.99-1.423 3.002-3.57 3.002-6.38 0-5.49-2.723-7.94-8.827-7.94h-8.894v28.234h3.453v-26.27h5.705c3.892 0 4.958 1.284 4.958 5.976 0 2.615-.432 6.092-4.171 6.092h-3.25v1.963h.749l9.282 12.24h4.137z" fill="#1c424d"/>
    </g>
    <path d="M99.957 143.52h-1.132v9.96h1.132z" fill="#1c424d" style="stroke-width:.352778" transform="translate(-70.287 -143.52)"/>
    <g clip-path="url(#b)" transform="matrix(.35278 0 0 .35278 -114.25 -33)" fill="#1c424d">
        <path d="M431.778 119.722c2.057-1.526 3.143-3.695 3.143-6.274 0-3.774-2.475-6.074-8.025-7.453l-3.352-.855c-3.074-.758-5.621-1.638-5.621-4.748 0-2.915 2.592-4.951 6.302-4.951 3.724 0 6.756 1.656 8.11 4.43l.414.843 1.582-1.214-.28-.561c-1.69-3.377-5.363-5.394-9.826-5.394-5.325 0-9.34 3.229-9.34 7.513 0 2.125.724 3.744 2.214 4.95 1.22.989 2.946 1.717 5.593 2.357l3.577.855c2.774.653 5.614 1.782 5.614 5.192 0 3.779-3.45 5.469-6.867 5.469-4.458 0-8.163-2.164-9.438-5.517l-.313-.821-1.687.924.224.615c1.47 4.006 5.977 6.697 11.214 6.697 2.57 0 4.972-.731 6.762-2.057M467.502 109.538h4.342l8.919 12.24h4.112l-9.153-12.56c2.227-.565 6.047-2.328 6.047-7.734 0-5.492-2.722-7.94-8.827-7.94h-1.96v1.964h2.224c3.892 0 4.957 1.284 4.957 5.976 0 2.615-.431 6.092-4.17 6.092h-6.491V93.544h-3.454v28.234h3.454z"/>
    </g>
    <path d="m131.657 148.618-3.073-4.97-.08-.128h-1.395l3.654 5.879v4.081h1.219v-4.082l3.624-5.878h-.782zM114.7 145.451h-1.206v8.029h1.205zM118.466 143.52h-8.727v.752h8.727zM135.9 143.754h.427v1.183h.262v-1.183h.426v-.234h-1.114zM138.365 143.52l-.452.884-.453-.884h-.254v1.417h.263v-.834l.335.648h.216l.335-.648v.834h.264v-1.417z" fill="#1c424d" style="stroke-width:.352778" transform="translate(-70.287 -143.52)"/>
</svg>
