<svg version="1.1" viewBox="0 0 1270.6 192.66" xmlns="http://www.w3.org/2000/svg">
  <defs>
    <clipPath id="a">
      <path d="m0 648h1152v-648h-1152z"/>
    </clipPath>
  </defs>
  <g transform="matrix(1.3333 0 0 -1.3333 -126.4 540.77)">
    <g clip-path="url(#a)">
      <g transform="translate(286.88 268.06)">
        <path d="m0 0v4.798c17.305 0.514 19.362 4.454 19.362 37.525 0 32.555 1.713 36.496-19.533 37.181v4.626l36.153 1.714v-20.561c6.34 14.392 21.075 23.474 35.468 23.474 17.649 0 28.615-8.739 29.3-21.762 0.514-10.28-0.685-14.392-0.685-29.471 0-29.3 1.371-32.212 18.505-32.726v-4.798h-53.631v4.798c16.45 0.514 18.334 4.454 18.334 37.525 0 21.589-0.686 35.81-20.047 35.81-12.68 0-24.674-10.623-27.244-26.901v-8.909c0-33.071 2.056-37.011 18.506-37.525v-4.798z" fill="#006e47"/>
      </g>
      <g transform="translate(481.73 265.49)">
        <path d="m0 0c-1.885 5.139-2.742 11.479-3.085 23.646-6.34-15.079-21.418-24.504-34.783-24.504-16.791 0-27.757 8.91-28.442 22.447-0.515 10.281 0.685 14.222 0.685 29.301 0 29.298-1.885 30.499-19.02 31.012v4.798l37.353 1.714c-1.028-13.538-1.371-27.759-1.542-42.323-0.342-21.932 0.686-36.325 19.191-36.325 11.309 0 23.817 10.795 26.387 27.416v7.538c0 36.496-1.2 36.496-19.019 37.182v4.798l37.182 1.714c-1.028-13.538-1.543-27.759-1.543-42.323 0-27.071 0.857-38.21 21.418-38.21v-4.626z" fill="#006e47"/>
      </g>
      <g transform="translate(554.64 264.63)">
        <path d="m0 0c-16.62 0-25.359 7.368-25.359 29.3 0 10.623 1.029 21.076 1.029 36.496 0 15.593-1.543 15.25-22.275 15.25v4.969c26.387 0 32.212 18.849 32.898 44.549h6.511v-42.836c9.595 0 20.561 0.686 29.642 1.371v-8.739c-9.081 0.515-20.047 0.515-29.642 0.515v-42.665c0-21.76 5.312-27.929 13.365-27.929 11.308 0 13.879 10.28 14.564 18.676v0.173h5.655v-0.173c-1.371-18.334-8.739-28.957-26.388-28.957" fill="#006e47"/>
      </g>
      <g transform="translate(586.34 268.06)">
        <path d="m0 0v4.798c17.305 0.514 19.362 4.454 19.362 37.525v11.994c0 21.589-1.2 24.672-19.533 25.187v4.626l36.153 1.714v-19.877c5.483 13.537 17.306 22.79 28.272 22.79 11.48 0 17.649-8.054 17.649-14.564 0-6.17-3.428-11.652-10.282-11.652-11.822 0-10.623 14.221-18.162 14.221-5.997 0-14.05-7.881-17.477-25.872v-8.567c0-33.071 0.514-37.011 23.474-37.525v-4.798z" fill="#006e47"/>
      </g>
      <g transform="translate(697.39 376.01)">
        <path d="m0 0c-7.368 0-12.851 5.312-12.851 12.68 0 7.538 5.483 13.022 12.851 13.022s12.851-5.484 12.851-13.022c0-7.368-5.483-12.68-12.851-12.68m-25.187-107.95v4.799c17.305 0.513 19.361 4.454 19.361 37.524 0 32.555 1.714 36.496-19.533 37.181v4.627l36.154 1.713v-43.521c0-33.07 2.056-37.011 18.505-37.524v-4.799z" fill="#006e47"/>
      </g>
      <g transform="translate(736.29 268.06)">
        <path d="m0 0v4.798c17.305 0.514 19.362 4.454 19.362 37.525v46.261c0 33.071 1.713 36.841-19.533 37.526v4.797l39.408 1.542c-1.37-6.681-3.255-32.556-3.255-43.865v-46.261c0-33.071 2.056-37.011 19.362-37.525v-4.798z" fill="#006e47"/>
      </g>
      <g transform="translate(826.41 376.01)">
        <path d="m0 0c-7.368 0-12.851 5.312-12.851 12.68 0 7.538 5.483 13.022 12.851 13.022s12.852-5.484 12.852-13.022c0-7.368-5.484-12.68-12.852-12.68m-25.187-107.95v4.799c17.305 0.513 19.361 4.454 19.361 37.524 0 32.555 1.714 36.496-19.533 37.181v4.627l36.154 1.713v-43.521c0-33.07 2.057-37.011 18.505-37.524v-4.799z" fill="#006e47"/>
      </g>
      <g transform="translate(894.79 264.63)">
        <path d="m0 0c-16.62 0-25.359 7.368-25.359 29.3 0 10.623 1.028 21.076 1.028 36.496 0 15.593-1.542 15.25-22.275 15.25v4.969c26.388 0 32.213 18.849 32.898 44.549h6.51v-42.836c9.597 0 20.562 0.686 29.643 1.371v-8.739c-9.081 0.515-20.046 0.515-29.643 0.515v-42.665c0-21.76 5.314-27.929 13.366-27.929 11.308 0 13.88 10.28 14.565 18.676v0.173h5.655v-0.173c-1.371-18.334-8.741-28.957-26.388-28.957" fill="#006e47"/>
      </g>
      <g transform="translate(948.76 320.15)">
        <path d="m0 0h41.465c1.714 18.334-5.827 31.527-17.991 31.527-13.536 0-21.932-11.479-23.474-31.527m22.618-55.516c-25.703 0-43.009 17.821-43.009 44.207 0 28.615 18.164 47.977 44.721 47.977 24.503 0 39.239-17.991 37.012-41.807h-61.513v-1.371c0-25.188 10.624-40.609 28.272-40.609 15.934 0 26.901 9.424 28.784 24.674l5.827-0.686c-1.885-18.847-18.677-32.385-40.094-32.385" fill="#006e47"/>
      </g>
      <g transform="translate(237.6 347.64)">
        <path d="m0 0c14.791 8.885 21.053 26.672 22.715 32.294 0.284 0.961-0.307 1.944-1.288 2.145-5.745 1.173-24.388 4-39.18-4.884-12.887-7.741-19.295-22.233-21.832-29.557-4.984-4.287-16.441-14.15-28.987-24.974 1.593 3.925 2.8 8.165 2.72 11.826 5.454 4.795 17.24 16.776 19.391 32.413 2.35 17.094-7.582 33.123-10.921 37.943-0.57 0.823-1.706 0.979-2.478 0.34-4.515-3.739-18.406-16.492-20.756-33.586-2.041-14.842 5.173-28.869 9.296-35.466 1.539-4.661-3.5-15.746-7.872-22.641-9.931-8.582-19.567-16.932-26.361-22.869 0.855 2.53 1.549 5.36 1.894 8.391 5.486 5.583 15.469 17.633 16.711 32.471 1.438 17.194-9.332 32.673-12.922 37.308-0.613 0.792-1.757 0.888-2.493 0.209-4.31-3.975-17.503-17.448-18.942-34.643-1.354-16.18 8.1-30.835 12.212-36.37-1.393-8.367-5.764-14.811-6.779-16.219-10.966-7.948-23.995-7.943-24.235-7.975l-2.621 0.037-0.073-5.243 2.621-0.037c0.027 0 0.077-1e-3 0.149-1e-3 1.691 0 15.483 0.304 27.441 9.119 0.017 0.011 0.037 0.014 0.054 0.026 0.088 0.062 8.089 5.527 16.627 5.513 4.248-5.447 15.847-18.447 31.789-21.453 16.956-3.198 33.459 5.926 38.438 9.021 0.851 0.529 1.063 1.656 0.464 2.458-3.511 4.695-15.558 19.203-32.513 22.4-14.489 2.732-28.62-3.523-35.541-7.335-2.475 0.28-4.919 0.158-7.233-0.229 6.069 5.294 14.034 12.197 22.342 19.38 7e-3 7e-3 0.017 9e-3 0.025 0.015 0.114 0.104 10.301 9.227 22.904 7.762 4.356-5.747 15.498-18.453 31.009-21.726 16.883-3.561 33.579 5.205 38.624 8.192 0.862 0.51 1.098 1.632 0.516 2.447-3.409 4.77-15.14 19.534-32.023 23.096-14.947 3.153-29.73-3.35-36.428-6.957-3.49 0.556-6.809 0.457-9.862-0.078 10.794 9.312 20.575 17.733 25.827 22.252 7.065-1.245 23.941-3.002 37.571 5.185" fill="#81bc00"/>
      </g>
      <g transform="translate(1037 356.83)">
        <path d="m0 0 3.451-9.67 3.474 9.67h3.839v-13.508h-2.478v10.9l-3.737-10.9h-2.162l-3.771 10.9v-10.9h-2.478v13.508zm-17.031-2.254v2.254h11.514v-2.254h-4.416v-11.254h-2.683v11.254z" fill="#006e47"/>
      </g>
    </g>
  </g>
</svg>
