<svg width="138.955" height="139.047" viewBox="0 0 36.765 36.789" xmlns="http://www.w3.org/2000/svg"><defs><clipPath id="a"><path transform="matrix(1 0 0 -1 0 841.89)" d="M371.869 234.258h104.216v104.285H371.869z"/></clipPath></defs><g clip-path="url(#a)" transform="matrix(.35278 0 0 .35278 -131.187 -177.57)"><path d="M423.959 605.676c27.72 0 50.192-22.473 50.192-50.193s-22.472-50.193-50.192-50.193-50.192 22.472-50.192 50.193c0 27.72 22.472 50.193 50.192 50.193" fill="#fff"/><path d="M473.662 555.483c0 13.73-5.56 26.147-14.556 35.146-9 8.996-21.416 14.558-35.146 14.558-13.728 0-26.147-5.562-35.146-14.558-8.997-8.999-14.558-21.416-14.558-35.146s5.56-26.147 14.558-35.146c8.999-8.996 21.418-14.558 35.146-14.558 13.73 0 26.147 5.562 35.146 14.558 8.996 9 14.556 21.416 14.556 35.146h2.445c0-28.8-23.344-52.149-52.147-52.149-28.8 0-52.15 23.346-52.15 52.15 0 28.8 23.35 52.146 52.15 52.148 28.803-.002 52.147-23.348 52.147-52.149z" fill="#9ec90a"/></g><path d="M122.959 148.498h-.324c0 4.873-1.974 9.281-5.166 12.475a17.583 17.583 0 0 1-12.475 5.167 17.587 17.587 0 0 1-12.475-5.167 17.582 17.582 0 0 1-5.167-12.475c0-4.873 1.973-9.282 5.167-12.475a17.589 17.589 0 0 1 12.475-5.167c4.873 0 9.281 1.974 12.475 5.167a17.586 17.586 0 0 1 5.166 12.475h.647c0-10.101-8.187-18.289-18.288-18.29-10.1.001-18.29 8.189-18.29 18.29 0 10.1 8.19 18.288 18.29 18.288 10.101 0 18.288-8.187 18.288-18.288z" fill="#9ec90a" style="stroke-width:.352778" transform="translate(-86.617 -130.105)"/><path d="M109.18 157.879c-2.902 0-6.298-1.811-9.652-5.165-3.626-3.626-5.454-7.297-5.146-10.34.16-1.578 1.395-4.187 2.71-4.419.883-.158 2.97-.392 3.423.828l1.587 4.072c.428 1.166-.383 1.83-.92 2.27-.44.359-.71.602-.735.939-.032.434.755 1.86 2.317 3.41 1.487 1.475 2.981 2.34 3.4 2.306.34-.025.588-.29.956-.724.475-.559 1.125-1.324 2.275-.902l4.09 1.595c1.163.432 1.004 2.31.806 3.392l-.533-.082.53.093c-.23 1.304-2.849 2.533-4.436 2.693a6.71 6.71 0 0 1-.672.034M98.45 138.902a6.62 6.62 0 0 0-1.16.113c-.532.094-1.682 1.963-1.834 3.468-.275 2.714 1.442 6.076 4.835 9.469 3.383 3.383 6.741 5.096 9.454 4.821 1.515-.153 3.392-1.292 3.483-1.808l.003-.018c.238-1.292.075-2.116-.128-2.191l-4.088-1.594c-.383-.14-.563-.008-1.072.591-.394.464-.884 1.04-1.699 1.102-1.178.086-3.217-1.603-4.238-2.616-1.367-1.356-2.712-3.198-2.633-4.255.062-.822.653-1.306 1.127-1.694.603-.494.736-.669.595-1.055l-1.587-4.069c-.052-.142-.432-.264-1.058-.264" fill="#006942" style="stroke-width:.352778" transform="translate(-86.617 -130.105)"/></svg>