<svg width="143.675" height="143.711" viewBox="0 0 38.014 38.023" xmlns="http://www.w3.org/2000/svg"><defs><clipPath id="a"><path transform="matrix(1 0 0 -1 0 841.89)" d="M467.614 652.998H575.37v107.783H467.614z"/></clipPath><clipPath id="b"><path transform="matrix(1 0 0 -1 0 841.89)" d="M0 0h595.276v841.89H0z"/></clipPath></defs><g clip-path="url(#a)" transform="matrix(.35278 0 0 .35278 -164.964 -28.613)"><path d="M521.51 186.871c28.65 0 51.876-23.227 51.876-51.876 0-28.65-23.225-51.877-51.875-51.877s-51.875 23.226-51.875 51.877c0 28.65 23.225 51.876 51.875 51.876" fill="#fff"/><path d="M572.881 134.995c0 14.19-5.746 27.024-15.044 36.324-9.301 9.299-22.134 15.047-36.325 15.047-14.188 0-27.024-5.748-36.325-15.047-9.298-9.3-15.046-22.133-15.046-36.324 0-14.191 5.748-27.024 15.046-36.324 9.301-9.3 22.137-15.047 36.325-15.047 14.191 0 27.024 5.748 36.325 15.047 9.298 9.3 15.044 22.133 15.044 36.324h2.527c0-29.767-24.127-53.898-53.896-53.898-29.765 0-53.898 24.129-53.898 53.898 0 29.767 24.133 53.896 53.898 53.898 29.769-.002 53.896-24.131 53.896-53.898z" fill="#9ec90a"/></g><g clip-path="url(#b)" transform="matrix(.35278 0 0 .35278 -164.97 -28.611)"><path d="M574.144 134.995h-.948c0 14.276-5.783 27.193-15.137 36.548-9.356 9.354-22.27 15.139-36.546 15.139s-27.192-5.785-36.549-15.14c-9.356-9.354-15.14-22.271-15.14-36.547.002-14.276 5.784-27.193 15.14-36.548 9.357-9.354 22.273-15.14 36.55-15.14 14.275 0 27.19 5.786 36.545 15.14 9.354 9.355 15.137 22.272 15.137 36.548h1.896c0-29.593-23.986-53.581-53.579-53.583-29.592.002-53.583 23.99-53.583 53.583s23.991 53.58 53.583 53.58c29.593 0 53.58-23.987 53.58-53.58z" fill="#9ec90a"/><path d="M546.723 144.037c-1.222.049-2.558.242-3.977.544-5.92-1.261-10.13-.237-12.671 2.262-2.577 2.534-3.313 6.325-2.914 10.078.4 3.753 1.92 7.549 4.162 10.37 2.24 2.82 5.33 4.738 8.708 4.176.472-.08.88-.233 1.353-.358.467-.124.952-.211 1.314-.201.787.042 1.926.418 2.765.555 3.382.549 6.475-1.372 8.718-4.195 2.244-2.823 3.769-6.617 4.168-10.368.399-3.75-.342-7.536-2.922-10.065-1.936-1.897-4.826-2.955-8.704-2.798m.066 2.107c3.418-.158 5.683.762 7.154 2.204 1.96 1.92 2.653 5.003 2.299 8.329-.354 3.326-1.766 6.816-3.718 9.273-1.953 2.456-4.316 3.81-6.722 3.42-.352-.057-1.73-.516-3.003-.581h-.02c-.721-.024-1.383.124-1.938.27-.554.148-1.046.299-1.16.318-2.395.399-4.75-.95-6.7-3.404-1.948-2.455-3.36-5.946-3.714-9.275-.354-3.33.335-6.417 2.293-8.342 1.958-1.926 5.328-2.925 10.955-1.674l.23.05.23-.05c1.408-.313 2.675-.486 3.814-.538z" fill="#006942"/><path stroke-width=".003" stroke-miterlimit="10" fill="none" stroke="#006942" d="M546.723 144.037c-1.222.049-2.558.242-3.977.544-5.92-1.261-10.13-.237-12.671 2.262-2.577 2.534-3.313 6.325-2.914 10.078.4 3.753 1.92 7.549 4.162 10.37 2.24 2.82 5.33 4.738 8.708 4.176.472-.08.88-.233 1.353-.358.467-.124.952-.211 1.314-.201.787.042 1.926.418 2.765.555 3.382.549 6.475-1.372 8.718-4.195 2.244-2.823 3.769-6.617 4.168-10.368.399-3.75-.342-7.536-2.922-10.065-1.936-1.897-4.826-2.955-8.704-2.798zm.066 2.107c3.418-.158 5.683.762 7.154 2.204 1.96 1.92 2.653 5.003 2.299 8.329-.354 3.326-1.766 6.816-3.718 9.273-1.953 2.456-4.316 3.81-6.722 3.42-.352-.057-1.73-.516-3.003-.581h-.02c-.721-.024-1.383.124-1.938.27-.554.148-1.046.299-1.16.318-2.395.399-4.75-.95-6.7-3.404-1.948-2.455-3.36-5.946-3.714-9.275-.354-3.33.335-6.417 2.293-8.342 1.958-1.926 5.328-2.925 10.955-1.674l.23.05.23-.05c1.408-.313 2.675-.486 3.814-.538z"/><path d="M537.622 138.333a1.058 1.058 0 0 0-.426 2.027l.002.001c1.627.72 2.678 1.474 3.35 2.31.672.835 1.016 1.78 1.142 3.08a1.06 1.06 0 0 0 2.109-.206v-.002c-.155-1.592-.644-3.013-1.6-4.2-.955-1.189-2.323-2.116-4.142-2.92a1.065 1.065 0 0 0-.435-.09" fill="#006942"/><path stroke-width=".003" stroke-miterlimit="10" fill="none" stroke="#006942" d="M537.622 138.333a1.058 1.058 0 0 0-.426 2.027l.002.001c1.627.72 2.678 1.474 3.35 2.31.672.835 1.016 1.78 1.142 3.08a1.06 1.06 0 0 0 2.109-.206v-.002c-.155-1.592-.644-3.013-1.6-4.2-.955-1.189-2.323-2.116-4.142-2.92a1.065 1.065 0 0 0-.435-.09z"/><path d="M550.204 135.842s-1.15-.014-2.54.22c-1.39.237-3.091.673-4.3 1.885-2.417 2.423-.79 6.024-.79 6.024.108.254.31.457.565.564 0 0 3.16 1.325 5.55-.521l.005-.002c.174-.05.333-.141.46-.27 1.21-1.211 1.643-2.915 1.878-4.308.234-1.393.22-2.543.22-2.543a1.06 1.06 0 0 0-1.048-1.05zm-1.171 2.22c-.024.387.003.459-.091 1.02-.201 1.194-.662 2.536-1.287 3.163-1.041 1.042-2.63.624-3.23.44-.182-.6-.601-2.2.44-3.242.625-.627 1.964-1.088 3.154-1.29.558-.094.629-.066 1.014-.09z" fill="#006942"/><path stroke-width=".003" stroke-miterlimit="10" fill="none" stroke="#006942" d="M550.204 135.842s-1.15-.014-2.54.22c-1.39.237-3.091.673-4.3 1.885-2.417 2.423-.79 6.024-.79 6.024.108.254.31.457.565.564 0 0 3.16 1.325 5.55-.521l.005-.002c.174-.05.333-.141.46-.27 1.21-1.211 1.643-2.915 1.878-4.308.234-1.393.22-2.543.22-2.543a1.06 1.06 0 0 0-1.048-1.05zm-1.171 2.22c-.024.387.003.459-.091 1.02-.201 1.194-.662 2.536-1.287 3.163-1.041 1.042-2.63.624-3.23.44-.182-.6-.601-2.2.44-3.242.625-.627 1.964-1.088 3.154-1.29.558-.094.629-.066 1.014-.09z"/><path d="M527.35 105.347a1.06 1.06 0 1 0 0 2.119h9.521c1.222 0 2.173.95 2.173 2.173v24.26a1.06 1.06 0 1 0 2.119 0v-24.26a4.307 4.307 0 0 0-4.292-4.292z" fill="#006942"/><path stroke-width=".003" stroke-miterlimit="10" fill="none" stroke="#006942" d="M527.35 105.347a1.06 1.06 0 1 0 0 2.119h9.521c1.222 0 2.173.95 2.173 2.173v24.26a1.06 1.06 0 1 0 2.119 0v-24.26a4.307 4.307 0 0 0-4.292-4.292h-9.522z"/><path d="M493.678 105.347a4.307 4.307 0 0 0-4.292 4.292v55.609a4.307 4.307 0 0 0 4.291 4.292h32.718a1.06 1.06 0 1 0 0-2.12h-32.717a2.146 2.146 0 0 1-2.173-2.172v-55.61c0-1.221.95-2.172 2.173-2.172h9.522a1.06 1.06 0 0 0 1.06-1.06 1.06 1.06 0 0 0-1.06-1.06z" fill="#006942"/><path stroke-width=".003" stroke-miterlimit="10" fill="none" stroke="#006942" d="M493.678 105.347a4.307 4.307 0 0 0-4.292 4.292v55.609a4.307 4.307 0 0 0 4.291 4.292h32.718a1.06 1.06 0 1 0 0-2.12h-32.717a2.146 2.146 0 0 1-2.173-2.172v-55.61c0-1.221.95-2.172 2.173-2.172h9.522a1.06 1.06 0 0 0 1.06-1.06 1.06 1.06 0 0 0-1.06-1.06h-9.522z"/><path d="M504.776 121.909a1.06 1.06 0 0 0-.863.503l-3.038 4.948-1.887-1.937a1.059 1.059 0 1 0-1.517 1.477l2.837 2.914a1.06 1.06 0 0 0 1.662-.186l3.75-6.107a1.06 1.06 0 0 0-.944-1.612z" fill="#006942"/><path stroke-width=".003" stroke-miterlimit="10" fill="none" stroke="#006942" d="M504.776 121.909a1.06 1.06 0 0 0-.863.503l-3.038 4.948-1.887-1.937a1.059 1.059 0 1 0-1.517 1.477l2.837 2.914a1.06 1.06 0 0 0 1.662-.186l3.75-6.107a1.06 1.06 0 0 0-.944-1.612z"/><path d="M510.155 124.96a1.06 1.06 0 1 0 0 2.12h22.165a1.06 1.06 0 1 0 0-2.12z" fill="#006942"/><path stroke-width=".003" stroke-miterlimit="10" fill="none" stroke="#006942" d="M510.155 124.96a1.06 1.06 0 1 0 0 2.12h22.165a1.06 1.06 0 1 0 0-2.12z"/><path d="M504.776 134.722a1.06 1.06 0 0 0-.863.503l-3.038 4.948-1.887-1.937a1.06 1.06 0 1 0-1.519 1.477l.002.002 2.837 2.912a1.06 1.06 0 0 0 1.662-.186l3.75-6.107a1.06 1.06 0 0 0-.944-1.612" fill="#006942"/><path stroke-width=".003" stroke-miterlimit="10" fill="none" stroke="#006942" d="M504.776 134.722a1.06 1.06 0 0 0-.863.503l-3.038 4.948-1.887-1.937a1.06 1.06 0 1 0-1.519 1.477l.002.002 2.837 2.912a1.06 1.06 0 0 0 1.662-.186l3.75-6.107a1.06 1.06 0 0 0-.944-1.612z"/><path d="M510.155 137.775a1.06 1.06 0 1 0 0 2.119h20.162a1.06 1.06 0 1 0 0-2.12z" fill="#006942"/><path stroke-width=".003" stroke-miterlimit="10" fill="none" stroke="#006942" d="M510.155 137.775a1.06 1.06 0 1 0 0 2.119h20.162a1.06 1.06 0 1 0 0-2.12h-20.162z"/><path d="M504.776 147.536a1.06 1.06 0 0 0-.863.503l-3.038 4.948-1.887-1.937a1.06 1.06 0 0 0-1.517 1.479l2.837 2.912a1.06 1.06 0 0 0 1.662-.186l3.75-6.107a1.06 1.06 0 0 0-.944-1.612" fill="#006942"/><path stroke-width=".003" stroke-miterlimit="10" fill="none" stroke="#006942" d="M504.776 147.536a1.06 1.06 0 0 0-.863.503l-3.038 4.948-1.887-1.937a1.06 1.06 0 0 0-1.517 1.479l2.837 2.912a1.06 1.06 0 0 0 1.662-.186l3.75-6.107a1.06 1.06 0 0 0-.944-1.612z"/><path d="M510.155 150.588a1.06 1.06 0 1 0 0 2.12h13.528a1.06 1.06 0 1 0 0-2.12z" fill="#006942"/><path stroke-width=".003" stroke-miterlimit="10" fill="none" stroke="#006942" d="M510.155 150.588a1.06 1.06 0 1 0 0 2.12h13.528a1.06 1.06 0 1 0 0-2.12z"/><path d="M515.275 95.579a9.417 9.417 0 0 0-9.304 8.033 1.06 1.06 0 0 0 2.097.309 7.273 7.273 0 0 1 7.207-6.223 7.273 7.273 0 0 1 7.207 6.223 1.06 1.06 0 1 0 2.096-.309 9.416 9.416 0 0 0-9.303-8.033" fill="#006942"/><path stroke-width=".003" stroke-miterlimit="10" fill="none" stroke="#006942" d="M515.275 95.579a9.417 9.417 0 0 0-9.304 8.033 1.06 1.06 0 0 0 2.097.309 7.273 7.273 0 0 1 7.207-6.223 7.273 7.273 0 0 1 7.207 6.223 1.06 1.06 0 1 0 2.096-.309 9.416 9.416 0 0 0-9.303-8.033z"/><path d="M504.19 102.707a2.07 2.07 0 0 0-2.05 2.05v4.752a2.07 2.07 0 0 0 2.05 2.05h22.168a2.07 2.07 0 0 0 2.05-2.05v-4.751a2.07 2.07 0 0 0-2.05-2.051zm.069 2.119h22.03v4.615h-22.03z" fill="#006942"/><path stroke-width=".003" stroke-miterlimit="10" fill="none" stroke="#006942" d="M504.19 102.707a2.07 2.07 0 0 0-2.05 2.05v4.752a2.07 2.07 0 0 0 2.05 2.05h22.168a2.07 2.07 0 0 0 2.05-2.05v-4.751a2.07 2.07 0 0 0-2.05-2.051zm.069 2.119h22.03v4.615h-22.03z"/></g></svg>
