<svg width="140.025" height="140.027" viewBox="0 0 37.048 37.049" xmlns="http://www.w3.org/2000/svg"><defs><clipPath id="a"><path transform="matrix(1 0 0 -1 0 841.89)" d="M0 0h595.276v841.89H0z"/></clipPath></defs><g clip-path="url(#a)" transform="matrix(.35278 0 0 .35278 -162.753 -97.917)"><path d="M513.856 380.61c27.912 0 50.54-22.63 50.54-50.541 0-27.913-22.628-50.542-50.54-50.542s-50.54 22.629-50.54 50.542c0 27.912 22.628 50.54 50.54 50.54" fill="#fff"/><path d="M563.904 330.068c0 13.826-5.598 26.33-14.657 35.39-9.061 9.06-21.564 14.66-35.39 14.66-13.823 0-26.328-5.6-35.39-14.66-9.06-9.06-14.66-21.564-14.66-35.39s5.6-26.329 14.66-35.39c9.062-9.059 21.567-14.659 35.39-14.659 13.826 0 26.329 5.6 35.39 14.66 9.059 9.06 14.657 21.563 14.657 35.39h2.46c0-29.002-23.504-52.51-52.506-52.51-29.001 0-52.512 23.506-52.512 52.51 0 29 23.51 52.508 52.512 52.51 29.002-.002 52.507-23.51 52.507-52.51z" fill="#9ec90a"/><path d="M565.135 330.068h-.923c0 13.91-5.635 26.492-14.749 35.608-9.114 9.113-21.695 14.748-35.604 14.748-13.91 0-26.493-5.635-35.61-14.748-9.115-9.116-14.75-21.699-14.75-35.608.002-13.909 5.635-26.492 14.75-35.608 9.117-9.113 21.7-14.748 35.61-14.748 13.909 0 26.49 5.635 35.604 14.748 9.114 9.116 14.749 21.7 14.749 35.608h1.846c0-28.832-23.369-52.202-52.2-52.203-28.831.001-52.204 23.371-52.204 52.203 0 28.832 23.373 52.202 52.205 52.202 28.83 0 52.198-23.37 52.198-52.202z" fill="#9ec90a"/><path d="M507.178 320.042a6.526 6.526 0 0 1 6.518-6.518 6.525 6.525 0 0 1 6.516 6.518 6.525 6.525 0 0 1-6.516 6.518 6.526 6.526 0 0 1-6.519-6.518m15.124 0c0-4.745-3.862-8.606-8.606-8.606-4.745 0-8.606 3.86-8.606 8.606 0 4.745 3.862 8.606 8.607 8.606 4.743 0 8.605-3.861 8.605-8.606" fill="#006942"/><path stroke-width=".075" stroke-miterlimit="10" fill="none" stroke="#006942" d="M507.1 320.042a6.604 6.604 0 0 1 6.595-6.596 6.604 6.604 0 0 1 6.596 6.596 6.604 6.604 0 0 1-6.596 6.596 6.604 6.604 0 0 1-6.596-6.596zm15.304 0c0-4.802-3.907-8.71-8.709-8.71s-8.709 3.908-8.709 8.71c0 4.802 3.907 8.709 8.71 8.709 4.801 0 8.708-3.907 8.708-8.71z"/><path d="M515.565 332.544c3.398 0 6.493 1.33 8.08 3.472a1.044 1.044 0 1 0 1.674-1.248c-1.97-2.662-5.708-4.317-9.754-4.317h-4.02c-3.848 0-7.375 1.462-9.434 3.911a1.047 1.047 0 0 0 .125 1.475c.44.373 1.1.316 1.471-.126 1.642-1.954 4.646-3.167 7.837-3.167z" fill="#006942"/><path stroke-width=".075" stroke-miterlimit="10" fill="none" stroke="#006942" d="M515.582 332.513c3.428 0 6.55 1.376 8.149 3.592a1.032 1.032 0 0 0 1.473.224 1.103 1.103 0 0 0 .218-1.515c-1.988-2.754-5.76-4.466-9.84-4.466h-4.056c-3.881 0-7.44 1.512-9.516 4.046a1.104 1.104 0 0 0 .126 1.526 1.034 1.034 0 0 0 1.484-.13c1.656-2.022 4.686-3.277 7.906-3.277z"/><path d="M488.369 326.387a6.525 6.525 0 0 1 6.518-6.518 6.525 6.525 0 0 1 6.517 6.518 6.525 6.525 0 0 1-6.517 6.518 6.525 6.525 0 0 1-6.518-6.518m15.123 0c0-4.745-3.861-8.606-8.605-8.606-4.746 0-8.606 3.861-8.606 8.606 0 4.745 3.86 8.606 8.606 8.606 4.744 0 8.605-3.86 8.605-8.606" fill="#006942"/><path stroke-width=".075" stroke-miterlimit="10" fill="none" stroke="#006942" d="M488.29 326.387a6.604 6.604 0 0 1 6.596-6.596 6.604 6.604 0 0 1 6.596 6.596 6.604 6.604 0 0 1-6.596 6.596 6.604 6.604 0 0 1-6.596-6.596zm15.305 0c0-4.802-3.906-8.709-8.709-8.709-4.803 0-8.709 3.907-8.709 8.71 0 4.801 3.906 8.708 8.71 8.708 4.802 0 8.709-3.907 8.709-8.709z"/><path d="M506.723 348.7c.577 0 1.044-.466 1.044-1.044v-2.615c0-2.131-.887-4.092-2.434-5.377-2.11-1.754-5.126-2.76-8.277-2.76h-4.02c-6.166 0-11.184 3.802-11.184 8.475v2.257a1.044 1.044 0 1 0 2.087 0v-2.257c0-3.521 4.08-6.385 9.097-6.385h4.02c2.672 0 5.2.83 6.944 2.278 1.067.887 1.679 2.26 1.679 3.769v2.615c0 .578.467 1.045 1.044 1.045" fill="#006942"/><path stroke-width=".075" stroke-miterlimit="10" fill="none" stroke="#006942" d="M506.818 348.804c.581 0 1.052-.476 1.052-1.064v-2.66c0-2.169-.894-4.164-2.453-5.472-2.127-1.784-5.168-2.807-8.343-2.807h-4.053c-6.215 0-11.273 3.867-11.273 8.622v2.297c0 .588.472 1.063 1.053 1.063.58 0 1.051-.475 1.051-1.063v-2.297c0-3.582 4.113-6.497 9.17-6.497h4.052c2.693 0 5.243.845 7 2.32 1.075.901 1.692 2.3 1.692 3.833v2.661c0 .588.471 1.064 1.052 1.064z"/><path d="M532.505 332.925a6.525 6.525 0 0 1-6.519-6.518 6.525 6.525 0 0 1 6.519-6.517 6.525 6.525 0 0 1 6.518 6.517 6.525 6.525 0 0 1-6.519 6.518m0-15.123c-4.745 0-8.606 3.86-8.606 8.605 0 4.746 3.86 8.606 8.606 8.606 4.745 0 8.606-3.86 8.606-8.606 0-4.745-3.86-8.605-8.606-8.605" fill="#006942"/><path stroke-width=".075" stroke-miterlimit="10" fill="none" stroke="#006942" d="M532.505 333.004a6.604 6.604 0 0 1-6.596-6.596 6.604 6.604 0 0 1 6.596-6.596 6.604 6.604 0 0 1 6.596 6.596 6.604 6.604 0 0 1-6.596 6.596zm0-15.305c-4.803 0-8.71 3.907-8.71 8.709 0 4.803 3.907 8.709 8.71 8.709 4.802 0 8.708-3.906 8.708-8.71 0-4.801-3.906-8.708-8.708-8.708z"/><path d="M544.815 348.7c.577 0 1.044-.466 1.044-1.044v-2.257c0-4.673-5.016-8.474-11.184-8.474h-4.02c-6.168 0-11.184 3.8-11.184 8.474v2.257a1.044 1.044 0 1 0 2.087 0v-2.257c0-3.521 4.08-6.385 9.097-6.385h4.02c5.016 0 9.096 2.864 9.096 6.385v2.257c0 .578.467 1.045 1.044 1.045" fill="#006942"/><path stroke-width=".075" stroke-miterlimit="10" fill="none" stroke="#006942" d="M544.91 348.804c.581 0 1.052-.476 1.052-1.064v-2.296c0-4.755-5.055-8.623-11.27-8.623h-4.053c-6.216 0-11.272 3.868-11.272 8.623v2.296c0 .588.47 1.064 1.051 1.064.582 0 1.053-.476 1.053-1.064v-2.296c0-3.583 4.112-6.497 9.168-6.497h4.052c5.054 0 9.167 2.914 9.167 6.497v2.296c0 .588.471 1.064 1.052 1.064z"/><path d="M553.423 330.068a1.126 1.126 0 0 1-1.125-1.126c0-19.858-16.155-36.014-36.013-36.014a1.126 1.126 0 1 1 0-2.252c21.1 0 38.264 17.166 38.264 38.266 0 .622-.502 1.126-1.125 1.126" fill="#006942"/></g></svg>